<?xml version="1.0" encoding="utf-8"?>
<!-- Generator: Adobe Illustrator 22.0.1, SVG Export Plug-In . SVG Version: 6.00 Build 0)  -->
<svg version="1.1" id="Слой_1" width='100' heigh='60' xmlns="http://www.w3.org/2000/svg" xmlns:xlink="http://www.w3.org/1999/xlink" x="0px" y="0px"
	 viewBox="0 0 484 363" style="enable-background:new 0 0 484 363;" xml:space="preserve">
<style type="text/css">
	.st0{display:none;}
	.st1{display:inline;fill:#000105;}
	.st2{fill:#FFFFFF;stroke:#FFFFFF;stroke-width:0.75;stroke-miterlimit:10;}
	.st3{fill:#FFFFFF;stroke:#FFFFFF;stroke-width:0.25;stroke-miterlimit:10;}
	.st4{fill:#FFFFFF;}
</style>
<g id="фон" class="st0">
	<rect x="-0.7" y="-1.8" class="st1" width="484.4" height="363.5"/>
	<path class="st1" d="M483.4-1.5v363.1H-0.4V-1.5H483.4 M484-2H-1v364h485V-2L484-2z"/>
</g>
<path class="st2" d="M124.9,207.1c-45.7,0-82.9-37.2-82.9-82.9s37.2-82.9,82.9-82.9s82.9,37.2,82.9,82.9S170.6,207.1,124.9,207.1z
	 M124.9,55.4c-38,0-68.9,30.9-68.9,68.9s30.9,68.9,68.9,68.9s68.9-30.9,68.9-68.9S162.9,55.4,124.9,55.4z"/>
<path class="st3" d="M221.2,50.5c-23-30.3-58.1-47.6-96.3-47.6c-43.8,0-83,22.6-104.9,60.6s-21.9,83.2,0,121.1l98.8,171.2
	c1.3,2.2,3.6,3.5,6.1,3.5s4.8-1.3,6.1-3.5l26.8-46.4l7,8.7c0.5,0.6,1.5,0.5,1.9-0.2l2.2-4.3c0.2-0.5,0.3-1,0.2-1.5
	c-0.7-2.8-2.9-12.3-3.5-15.1c-0.1-0.5,0-1,0.3-1.4c7.8-10,17.3-24.8,20.2-29.5c0.5-0.8,1.6-0.9,2.3-0.3l36,33.3
	c1,0.9,2.6,0.7,3.3-0.5l2.4-4.2c0.8-1.4,0.8-3,0-4.4L202,240.4c-0.4-0.6-0.4-1.4,0-2c2.8-5.5,17-31.6,18.8-38.3
	c2-7.4-2.9-9.7-2.9-9.7s-4.5-3.1-9.9,2.4c-4.9,5-20.1,30.4-23.4,35.7c-0.4,0.6-1,1-1.8,1l-56.7,1c-1.6,0-3,0.9-3.8,2.2l-2.4,4.2
	c-0.7,1.2-0.1,2.7,1.2,3.1l47,14c0.9,0.3,1.3,1.3,0.9,2.1c-2.6,5-10.5,20.6-15.1,32.5c-0.2,0.5-0.6,0.8-1.1,1
	c-2.8,0.9-12,3.8-14.8,4.6c-0.5,0.2-0.9,0.5-1.2,0.9l-2.6,4c-0.4,0.7,0,1.6,0.8,1.7l10.6,1.5l-20.6,35.7L32.1,177.5
	c-19.4-33.5-19.4-73.6,0-107.1s54-53.6,92.8-53.6c33.8,0,64.8,15.4,85.2,42.1c20.3,26.7,27.1,61.6,18.3,93.3c-1,3.7,1.1,7.6,4.9,8.6
	c3.7,1,7.6-1.1,8.6-4.9C251.9,120.1,244.1,80.6,221.2,50.5z"/>
<g id="e">
	<path class="st4" d="M457.8,286c-5.8,0-10.8-1.1-14.9-3.4c-4.1-2.2-7.3-5.4-9.6-9.6c-2.3-4.1-3.4-9-3.4-14.7
		c0-5.6,1.1-10.5,3.4-14.6s5.3-7.4,9.2-9.8s8.4-3.5,13.5-3.5c3.6,0,6.8,0.6,9.7,1.8c2.9,1.2,5.4,3,7.4,5.2c2,2.3,3.6,5,4.7,8.3
		c1.1,3.3,1.6,7,1.6,11c0,1.2-0.3,2.1-1,2.7c-0.7,0.6-1.7,0.9-3,0.9h-37.6V254h35.1l-1.9,1.5c0-3.8-0.6-7.1-1.7-9.7s-2.8-4.7-5-6.1
		c-2.2-1.4-4.9-2.1-8.1-2.1c-3.5,0-6.5,0.8-9,2.5c-2.5,1.6-4.4,4-5.7,6.9c-1.3,3-2,6.4-2,10.3v0.7c0,6.6,1.6,11.6,4.7,15
		c3.2,3.4,7.7,5.1,13.6,5.1c2.3,0,4.8-0.3,7.2-0.9s4.8-1.6,7.1-3.2c1.1-0.7,2.1-1,3-0.9c0.9,0,1.7,0.3,2.3,0.9c0.6,0.5,1,1.2,1.1,2
		c0.2,0.8,0,1.6-0.3,2.5c-0.4,0.9-1.1,1.6-2.1,2.3c-2.4,1.7-5.3,3-8.6,3.9C464.1,285.5,460.9,286,457.8,286z"/>
	<path class="st4" d="M457.8,287.5c-6,0-11.3-1.2-15.6-3.5c-4.4-2.4-7.8-5.8-10.2-10.2c-2.4-4.4-3.6-9.5-3.6-15.4
		c0-5.8,1.2-11,3.5-15.3c2.3-4.4,5.7-7.9,9.8-10.4c4.1-2.5,8.9-3.7,14.3-3.7c3.8,0,7.3,0.6,10.3,1.9c3.1,1.3,5.8,3.2,8,5.6
		c2.2,2.4,3.9,5.4,5,8.9c1.1,3.4,1.7,7.3,1.7,11.5c0,1.6-0.5,2.9-1.5,3.8c-1,0.9-2.3,1.3-4,1.3h-34.1c0.5,4.3,1.9,7.6,4.1,10
		c2.8,3,7.1,4.6,12.5,4.6c2.2,0,4.5-0.3,6.9-0.8c2.3-0.5,4.5-1.5,6.6-3c1.4-0.9,2.7-1.2,3.9-1.2c1.3,0,2.4,0.5,3.2,1.3
		c0.8,0.8,1.3,1.7,1.5,2.8c0.2,1.1,0.1,2.2-0.4,3.3c-0.5,1.2-1.4,2.2-2.7,3c-2.5,1.8-5.6,3.1-9,4.1C464.4,287,461,287.5,457.8,287.5
		z M456,231.9c-4.8,0-9,1.1-12.7,3.3c-3.7,2.2-6.6,5.3-8.7,9.2c-2.1,3.9-3.2,8.6-3.2,13.9c0,5.4,1.1,10.1,3.2,14
		c2.1,3.9,5.2,6.9,9,9c3.9,2.1,8.7,3.2,14.2,3.2c2.9,0,6-0.4,9.2-1.3c3.2-0.9,5.9-2.1,8.2-3.7c0.8-0.5,1.3-1.1,1.6-1.7
		c0.3-0.6,0.3-1.1,0.2-1.6c-0.1-0.5-0.3-0.8-0.7-1.2c-0.3-0.3-0.7-0.5-1.3-0.5c-0.6,0-1.3,0.2-2.2,0.7c-2.3,1.6-4.9,2.7-7.5,3.4
		c-2.6,0.6-5.1,0.9-7.5,0.9c-6.3,0-11.3-1.9-14.7-5.5c-2.7-2.9-4.4-7-4.9-12.1h-2v-9.4h2.1c0.3-2.2,0.9-4.2,1.8-6.1
		c1.4-3.2,3.5-5.8,6.3-7.6c2.7-1.8,6-2.7,9.8-2.7c3.5,0,6.5,0.8,8.9,2.3c2.4,1.5,4.3,3.8,5.5,6.8c0.9,2.1,1.5,4.5,1.7,7.3h4.7
		l-7.5,6.2v-3.2c0,0,0,0,0,0H441c0,0.6,0,1.2,0,1.8v0.7c0,0.3,0,0.6,0,0.9h34.3c0.9,0,1.6-0.2,2-0.5c0.1-0.1,0.5-0.5,0.5-1.6
		c0-3.9-0.5-7.5-1.5-10.6c-1-3-2.5-5.7-4.4-7.8c-1.9-2.1-4.2-3.7-6.9-4.9C462.4,232.5,459.3,231.9,456,231.9z M441.4,252.6h27.9
		c-0.2-2.3-0.7-4.4-1.5-6.1c-1-2.4-2.5-4.2-4.4-5.4c-1.9-1.2-4.4-1.9-7.3-1.9c-3.2,0-6,0.8-8.2,2.2c-2.2,1.5-4,3.6-5.2,6.3
		C442.2,249.2,441.7,250.8,441.4,252.6z"/>
</g>
<g id="l">
	<path class="st4" d="M417.3,286c-5.5,0-9.7-1.6-12.5-4.9c-2.9-3.3-4.3-8-4.3-14.1v-55.2c0-1.7,0.4-3,1.3-3.8s2.1-1.3,3.6-1.3
		c1.6,0,2.9,0.4,3.7,1.3c0.9,0.8,1.3,2.1,1.3,3.8v54.5c0,3.8,0.8,6.6,2.4,8.5s3.8,2.8,6.8,2.8c0.7,0,1.3,0,1.8,0
		c0.5,0,1-0.1,1.5-0.2c0.8-0.1,1.4,0.1,1.8,0.7s0.5,1.5,0.5,3.1c0,1.4-0.3,2.5-0.9,3.3c-0.6,0.8-1.6,1.3-3,1.5
		c-0.7,0.1-1.3,0.1-2,0.2C418.7,286,418,286,417.3,286z"/>
	<path class="st4" d="M417.3,287.5c-5.9,0-10.5-1.8-13.7-5.4c-3.1-3.5-4.7-8.6-4.7-15.1v-55.2c0-2.1,0.6-3.7,1.8-4.9
		c1.2-1.1,2.7-1.7,4.7-1.7c2,0,3.6,0.6,4.8,1.7c1.2,1.1,1.8,2.8,1.8,4.9v54.5c0,3.4,0.7,6,2,7.6c1.3,1.5,3.1,2.3,5.6,2.3
		c0.6,0,1.2,0,1.7,0c0.5,0,1-0.1,1.4-0.1c1.9-0.2,2.8,0.7,3.2,1.3c0.6,0.8,0.8,2.1,0.8,4c0,1.7-0.4,3.1-1.3,4.2
		c-0.9,1.1-2.2,1.8-4,2c-0.8,0.1-1.4,0.1-2.1,0.2C418.7,287.5,418,287.5,417.3,287.5z M405.5,208.2c-1.2,0-2,0.3-2.6,0.9
		c-0.6,0.5-0.9,1.5-0.9,2.7v55.2c0,5.8,1.3,10.2,3.9,13.1c2.6,3,6.3,4.4,11.4,4.4c0.6,0,1.3,0,1.9,0c0.6,0,1.3-0.1,1.9-0.2
		c0.9-0.1,1.6-0.5,2-0.9c0.4-0.5,0.6-1.3,0.6-2.3c0-1.8-0.3-2.2-0.3-2.2c0,0-0.1-0.1-0.4,0c-0.5,0.1-1,0.1-1.6,0.2
		c-0.5,0-1.1,0.1-1.9,0.1c-3.4,0-6-1.1-7.9-3.3c-1.8-2.1-2.7-5.3-2.7-9.5v-54.5c0-1.3-0.3-2.2-0.9-2.7
		C407.6,208.4,406.7,208.2,405.5,208.2z"/>
</g>
<g id="i">
	<path class="st4" d="M379.4,219c-2,0-3.5-0.5-4.7-1.6s-1.7-2.5-1.7-4.2c0-1.9,0.6-3.4,1.7-4.3s2.7-1.5,4.7-1.5
		c2.1,0,3.7,0.5,4.8,1.5c1.1,1,1.6,2.4,1.6,4.3c0,1.8-0.5,3.2-1.6,4.2C383.1,218.4,381.5,219,379.4,219z M379.4,285.5
		c-1.5,0-2.8-0.5-3.6-1.4c-0.9-1-1.3-2.3-1.3-4v-43.9c0-1.8,0.4-3.1,1.3-4c0.9-0.9,2.1-1.4,3.6-1.4c1.6,0,2.9,0.5,3.7,1.4
		s1.3,2.3,1.3,4v43.9c0,1.7-0.4,3-1.3,4C382.3,285,381.1,285.5,379.4,285.5z"/>
	<path class="st4" d="M379.4,287c-2,0-3.6-0.6-4.7-1.9c-1.1-1.2-1.7-2.9-1.7-5v-43.9c0-2.1,0.6-3.9,1.7-5c1.2-1.2,2.8-1.8,4.7-1.8
		c2,0,3.7,0.6,4.8,1.8c1.2,1.2,1.7,2.9,1.7,5v43.9c0,2.1-0.5,3.7-1.6,5C383.2,286.4,381.5,287,379.4,287z M379.4,232.4
		c-1.1,0-2,0.3-2.5,0.9c-0.6,0.6-0.9,1.6-0.9,3v43.9c0,1.3,0.3,2.3,0.9,2.9c0.6,0.6,1.4,1,2.5,1c1.3,0,2.1-0.3,2.7-0.9
		c0.6-0.7,0.9-1.7,0.9-3v-43.9c0-1.4-0.3-2.4-0.9-3C381.5,232.6,380.6,232.4,379.4,232.4z M379.4,220.5c-2.4,0-4.3-0.7-5.7-2
		c-1.5-1.4-2.2-3.1-2.2-5.3c0-2.4,0.8-4.2,2.2-5.5c1.4-1.2,3.3-1.9,5.7-1.9c2.5,0,4.5,0.6,5.8,1.9c1.4,1.3,2.1,3.1,2.1,5.4
		c0,2.2-0.7,4-2,5.3C383.9,219.8,381.9,220.5,379.4,220.5z M379.4,208.8c-1.6,0-2.8,0.4-3.7,1.1c-0.8,0.7-1.2,1.8-1.2,3.2
		c0,1.3,0.4,2.4,1.2,3.1c0.9,0.8,2,1.2,3.7,1.2c1.7,0,3-0.4,3.7-1.2c0.8-0.8,1.2-1.8,1.2-3.2c0-1.5-0.4-2.5-1.1-3.3
		C382.4,209.2,381.1,208.8,379.4,208.8z"/>
</g>
<g id="m">
	<path class="st4" d="M284.9,285.8c-1.5,0-2.8-0.4-3.6-1.3s-1.3-2.2-1.3-3.9v-44.9c0-1.7,0.4-3,1.3-3.8s2.1-1.3,3.6-1.3
		s2.7,0.4,3.6,1.3c0.8,0.8,1.3,2.1,1.3,3.8v9.4l-1.2-2c1.4-4,3.6-7.1,6.8-9.4c3.1-2.2,6.8-3.3,11.2-3.3c4.5,0,8.2,1.1,11,3.2
		s4.7,5.5,5.6,9.9h-1.5c1.3-4,3.7-7.2,7.1-9.6s7.4-3.5,11.9-3.5c4,0,7.4,0.8,10,2.4c2.6,1.6,4.6,3.9,5.9,7c1.3,3.1,2,7.1,2,11.9
		v28.8c0,1.7-0.4,3-1.3,3.9s-2.1,1.3-3.6,1.3c-1.6,0-2.9-0.4-3.7-1.3s-1.3-2.2-1.3-3.9v-28.4c0-4.7-0.8-8.1-2.4-10.3
		c-1.6-2.2-4.3-3.3-8.1-3.3c-4.2,0-7.5,1.5-10,4.3c-2.5,2.9-3.7,6.9-3.7,11.9v25.7c0,1.7-0.4,3-1.3,3.9s-2.1,1.3-3.7,1.3
		c-1.6,0-2.9-0.4-3.7-1.3s-1.3-2.2-1.3-3.9v-28.4c0-4.7-0.8-8.1-2.4-10.3c-1.6-2.2-4.3-3.3-8.1-3.3c-4.2,0-7.5,1.5-10,4.3
		c-2.5,2.9-3.7,6.9-3.7,11.9v25.7C290,284,288.3,285.8,284.9,285.8z"/>
	<path class="st4" d="M353.4,287.3c-2,0-3.6-0.6-4.8-1.8c-1.2-1.2-1.8-2.8-1.8-4.9v-28.4c0-4.3-0.7-7.5-2.1-9.5
		c-1.3-1.8-3.6-2.7-6.9-2.7c-3.8,0-6.6,1.3-8.8,3.8c-2.2,2.6-3.3,6.3-3.3,11v25.7c0,2.1-0.6,3.7-1.7,4.9c-1.1,1.2-2.7,1.8-4.8,1.8
		c-2,0-3.6-0.6-4.8-1.8c-1.2-1.2-1.8-2.8-1.8-4.9v-28.4c0-4.3-0.7-7.5-2.1-9.5c-1.3-1.8-3.6-2.7-6.9-2.7c-3.8,0-6.6,1.3-8.8,3.8
		c-2.2,2.6-3.3,6.3-3.3,11v25.7c0,4.3-2.3,6.7-6.6,6.7c-2,0-3.5-0.6-4.7-1.8s-1.8-2.8-1.8-4.9v-44.9c0-2.1,0.6-3.7,1.8-4.9
		c1.2-1.1,2.7-1.7,4.7-1.7c1.9,0,3.5,0.6,4.6,1.7c1.1,1.1,1.6,2.6,1.7,4.5c1-1.1,2-2,3.2-2.9c3.4-2.4,7.4-3.6,12-3.6
		c4.9,0,8.9,1.2,11.9,3.6c1.8,1.4,3.2,3.1,4.3,5.3c1.4-2,3.1-3.7,5.1-5.1c3.6-2.5,8-3.8,12.8-3.8c4.3,0,7.9,0.9,10.7,2.6
		c2.9,1.7,5,4.3,6.5,7.7c1.4,3.3,2.1,7.5,2.1,12.5v28.8c0,2.1-0.6,3.7-1.8,4.9S355.4,287.3,353.4,287.3z M337.8,237.1
		c4.3,0,7.4,1.3,9.4,3.9c1.8,2.5,2.7,6.2,2.7,11.2v28.4c0,1.3,0.3,2.2,0.9,2.8s1.5,0.9,2.7,0.9c1.1,0,2-0.3,2.6-0.9s0.9-1.5,0.9-2.8
		v-28.8c0-4.6-0.6-8.4-1.9-11.4c-1.2-2.8-2.9-4.9-5.3-6.3c-2.4-1.4-5.4-2.1-9.2-2.1c-4.2,0-8,1.1-11.1,3.3c-2.4,1.6-4.1,3.6-5.4,6.1
		c0.2,0.6,0.3,1.2,0.5,1.9l0.3,1.5c0.5-1,1.1-1.9,1.9-2.8C329.5,238.7,333.2,237.1,337.8,237.1z M303.6,237.1c4.3,0,7.4,1.3,9.4,3.9
		c1.8,2.5,2.7,6.2,2.7,11.2v28.4c0,1.3,0.3,2.2,0.9,2.8s1.5,0.9,2.7,0.9c1.2,0,2-0.3,2.6-0.9c0.6-0.6,0.9-1.5,0.9-2.8v-25.7
		c0-3.8,0.7-7.1,2-9.8h-5.2l0.6-2c0.2-0.7,0.5-1.3,0.7-1.9c-1-2.7-2.4-4.8-4.3-6.3c-2.5-1.9-5.9-2.9-10.1-2.9c-4,0-7.5,1-10.3,3
		c-2,1.4-3.7,3.3-4.9,5.6v3.1c0.4-0.6,0.8-1.2,1.3-1.7C295.3,238.7,299,237.1,303.6,237.1z M284.9,232.1c-1.1,0-2,0.3-2.6,0.9
		c-0.6,0.5-0.9,1.5-0.9,2.7v44.9c0,1.3,0.3,2.2,0.9,2.8s1.4,0.9,2.6,0.9c2.5,0,3.6-1.1,3.6-3.7v-25.7c0-2.7,0.3-5.2,1-7.3l-2.6-4.3
		l0.2-0.7c0.3-1,0.7-1.9,1.1-2.7v-4.2c0-1.3-0.3-2.2-0.8-2.7C286.9,232.4,286,232.1,284.9,232.1z"/>
</g>
<g id="y">
	<path class="st4" d="M385.3,196.1c-1.2,0-2.1-0.3-2.9-0.9c-0.8-0.6-1.2-1.5-1.3-2.5s0.1-2.2,0.6-3.4l7.5-16.9v4.2l-20.8-48.4
		c-0.5-1.3-0.7-2.4-0.5-3.4s0.6-1.9,1.5-2.5c0.8-0.7,2-1,3.5-1c1.3,0,2.2,0.3,3,0.9s1.4,1.6,2.1,3.1l17.3,42.6H392l17.6-42.6
		c0.6-1.5,1.3-2.5,2.1-3.1s1.9-0.9,3.3-0.9c1.3,0,2.2,0.3,2.9,1s1.1,1.5,1.3,2.5s-0.1,2.1-0.7,3.3l-27.7,64.1
		c-0.7,1.5-1.5,2.6-2.3,3.1C387.8,195.8,386.7,196.1,385.3,196.1z"/>
	<path class="st4" d="M385.3,197.6c-1.5,0-2.8-0.4-3.9-1.3c-1.1-0.9-1.7-2.1-1.9-3.5c-0.1-1.3,0.1-2.7,0.7-4.1l6.3-14.3L367,128.7
		c-0.6-1.5-0.8-2.9-0.7-4.2c0.2-1.4,0.9-2.6,2-3.5c1.1-0.9,2.6-1.3,4.4-1.3c1.6,0,2.9,0.4,3.9,1.2c0.9,0.8,1.8,1.9,2.5,3.6
		l14.4,35.5l14.7-35.4c0.7-1.7,1.5-3,2.6-3.7c1.1-0.8,2.5-1.2,4.2-1.2c1.6,0,3,0.5,4,1.4c0.9,0.9,1.5,2,1.7,3.4
		c0.2,1.3-0.1,2.7-0.8,4.2l-27.7,64c-0.9,1.8-1.8,3-2.8,3.8C388.4,197.2,387,197.6,385.3,197.6z M388.2,178.1l-5.2,11.7
		c-0.4,0.9-0.6,1.8-0.5,2.6c0.1,0.7,0.3,1.1,0.8,1.5c0.5,0.4,1.2,0.6,2,0.6c1,0,1.9-0.2,2.4-0.5c0.4-0.3,1-0.9,1.8-2.6l27.7-64.1
		c0.5-1,0.7-1.8,0.5-2.5c-0.1-0.7-0.4-1.2-0.8-1.6c-0.4-0.4-1-0.6-1.9-0.6c-1.1,0-1.9,0.2-2.4,0.6c-0.6,0.4-1.1,1.3-1.6,2.4
		l-15.8,38.3l2.1,5.3h-6.7v14.6L388.2,178.1z M372.8,122.7c-1.1,0-2,0.2-2.5,0.7c-0.5,0.4-0.8,0.9-0.9,1.6c-0.1,0.8,0,1.6,0.5,2.6
		l18.5,43.1l2.4-5.4v1.9l1.3-3.1l-15.5-38.2c-0.7-1.5-1.3-2.2-1.6-2.5C374.3,122.9,373.6,122.7,372.8,122.7z"/>
</g>
<g id="M">
	<path class="st4" d="M284.8,176.3c-1.5,0-2.6-0.4-3.4-1.3s-1.2-2-1.2-3.5V102c0-1.5,0.4-2.7,1.3-3.6s2-1.3,3.5-1.3
		c1.3,0,2.4,0.3,3.1,0.8c0.8,0.5,1.5,1.4,2.1,2.6l29.5,55.3h-3.4l29.5-55.3c0.7-1.3,1.4-2.1,2.1-2.6s1.8-0.8,3.1-0.8
		c1.5,0,2.6,0.4,3.4,1.3c0.8,0.8,1.2,2,1.2,3.6v69.4c0,1.5-0.4,2.6-1.2,3.5c-0.8,0.9-1.9,1.3-3.5,1.3s-2.7-0.4-3.5-1.3
		s-1.2-2-1.2-3.5v-59.3h2.4l-26.4,49.4c-0.6,1-1.2,1.7-1.8,2.1c-0.6,0.5-1.5,0.7-2.6,0.7c-1,0-1.9-0.3-2.6-0.8
		c-0.7-0.5-1.3-1.2-1.8-2.1L286.7,112h2.6v59.4c0,1.5-0.4,2.6-1.1,3.5C287.5,175.8,286.3,176.3,284.8,176.3z"/>
	<path class="st4" d="M350.9,177.8c-2,0-3.5-0.6-4.6-1.8c-1-1.2-1.5-2.7-1.5-4.5v-48.8l-21.2,39.6c-0.7,1.2-1.5,2-2.2,2.6
		c-0.9,0.7-2.1,1-3.5,1c-1.4,0-2.5-0.4-3.5-1.1c-0.9-0.6-1.6-1.5-2.2-2.5l-21.3-39.4v48.6c0,1.8-0.5,3.4-1.5,4.5
		c-1.1,1.2-2.6,1.8-4.6,1.8c-1.9,0-3.4-0.6-4.5-1.8c-1.1-1.2-1.6-2.7-1.6-4.5V102c0-1.9,0.6-3.5,1.7-4.6s2.6-1.7,4.5-1.7
		c1.6,0,3,0.3,4,1c1,0.7,1.9,1.7,2.6,3.2l26.5,49.6l26.5-49.6c0.8-1.5,1.6-2.5,2.5-3.2c1-0.7,2.3-1,3.9-1c1.9,0,3.4,0.6,4.5,1.7
		c1.1,1.1,1.6,2.7,1.6,4.6v69.4c0,1.8-0.5,3.4-1.5,4.5C354.4,177.2,352.9,177.8,350.9,177.8z M347.7,117v54.4c0,1.1,0.3,1.9,0.8,2.5
		c0.5,0.5,1.2,0.8,2.3,0.8s1.9-0.3,2.3-0.8c0.5-0.6,0.8-1.4,0.8-2.5V102c0-1.1-0.3-2-0.8-2.5c-0.5-0.5-1.3-0.8-2.3-0.8
		c-1,0-1.8,0.2-2.2,0.5c-0.4,0.3-1,0.8-1.6,2.1l-27.4,51.4l2.5,4.7h-8.4l2.5-4.7l-27.4-51.4c-0.5-1-1.1-1.7-1.6-2.1
		c-0.5-0.3-1.3-0.5-2.3-0.5c-1.1,0-1.9,0.3-2.4,0.8c-0.6,0.6-0.8,1.4-0.8,2.5v69.4c0,1.1,0.3,1.9,0.8,2.5c0.5,0.6,1.3,0.8,2.3,0.8
		c1.1,0,1.9-0.3,2.3-0.8c0.5-0.6,0.8-1.4,0.8-2.5v-54.1l-3.6-6.8h6.6v6l23.9,44.3c0.4,0.7,0.9,1.2,1.4,1.6c0.4,0.3,1,0.5,1.7,0.5
		c0.8,0,1.3-0.1,1.7-0.4c0.5-0.4,1-1,1.5-1.7l23.8-44.5v-5.6h6.4L347.7,117z"/>
</g>
</svg>
